<svg width="70" height="70" viewBox="0 0 70 70" fill="none" xmlns="http://www.w3.org/2000/svg">
<rect width="70" height="70" rx="35" fill="url(#paint0_linear_153_205)"/>
<path d="M33.9724 54H25.7467L25.7985 47.928H33.9724C36.0137 47.928 37.7349 47.4696 39.1362 46.5527C40.5374 45.6186 41.5926 44.2606 42.3019 42.4788C43.0285 40.697 43.3917 38.5432 43.3917 36.0176V34.1752C43.3917 32.2377 43.1842 30.5338 42.769 29.0633C42.3711 27.5929 41.7743 26.356 40.9785 25.3527C40.1828 24.3493 39.2054 23.5968 38.0463 23.0951C36.8873 22.5762 35.5552 22.3167 34.0502 22.3167H25.591V16.2188H34.0502C36.5759 16.2188 38.8853 16.6512 40.9785 17.5162C43.089 18.3638 44.9141 19.5834 46.4537 21.1749C47.9933 22.7665 49.1783 24.6694 50.0086 26.8836C50.8563 29.0806 51.2801 31.5285 51.2801 34.2271V36.0176C51.2801 38.6989 50.8563 41.1468 50.0086 43.361C49.1783 45.5753 47.9933 47.4782 46.4537 49.0698C44.9314 50.644 43.1063 51.8636 40.9785 52.7285C38.868 53.5762 36.5326 54 33.9724 54ZM30.1579 16.2188V54H22.3733V16.2188H30.1579Z" fill="white"/>
<defs>
<linearGradient id="paint0_linear_153_205" x1="0" y1="0" x2="70" y2="70" gradientUnits="userSpaceOnUse">
<stop stop-color="#6199EC"/>
<stop offset="1"/>
</linearGradient>
</defs>
</svg>
