<svg width="101" height="101" viewBox="0 0 101 101" fill="none" xmlns="http://www.w3.org/2000/svg">
<path d="M50.6169 98.2306C24.3613 98.2306 3.00006 76.8714 3.00006 50.6148C3.00006 24.3583 24.3613 2.99902 50.6169 2.99902C76.8724 2.99902 98.2337 24.3603 98.2337 50.6158C98.2337 76.8714 76.8724 98.2306 50.6169 98.2306Z" fill="#85EA2D"/>
<path d="M49.9995 5.7654C74.9818 5.7654 95.2326 26.0163 95.2326 50.9985C95.2326 75.9798 74.9818 96.2316 49.9995 96.2316C25.0182 96.2316 4.76638 75.9798 4.76638 50.9985C4.76638 26.0173 25.0182 5.7654 49.9995 5.7654ZM49.9995 0.999023C22.4297 0.999023 0 23.4287 0 50.9985C0 78.5684 22.4297 100.998 49.9995 100.998C77.5693 100.998 100 78.5684 100 50.9985C100 23.4287 77.5693 0.999023 49.9995 0.999023Z" fill="#173647"/>
<path d="M31.9194 34.3876C31.7655 36.0987 31.9764 37.8677 31.8625 39.5978C31.7276 41.3288 31.5157 43.0399 31.1699 44.7509C30.6891 47.1926 29.17 49.0386 27.0751 50.5767C31.1519 53.2303 31.6126 57.344 31.8815 61.5167C32.0164 63.7665 31.9584 66.0352 32.1893 68.265C32.3622 69.9951 33.0348 70.4378 34.8238 70.4948C35.5544 70.5138 36.303 70.4948 37.1506 70.4948V75.8398C31.8635 76.7433 27.4989 75.2442 26.4215 70.7646C26.0747 69.1305 25.8438 67.4574 25.7678 65.7654C25.6519 63.9774 25.8438 62.1893 25.7099 60.4013C25.3251 55.498 24.6904 53.8449 20 53.6141V47.5194C20.3458 47.4425 20.6726 47.3845 21.0184 47.3465C23.595 47.2116 24.6904 46.423 25.2481 43.8854C25.518 42.4632 25.6719 41.021 25.7288 39.5598C25.9217 36.7723 25.8448 33.9269 26.3245 31.1584C26.9972 27.1786 29.4588 25.2557 33.5545 25.0248C34.7079 24.9668 35.8813 25.0248 37.2075 25.0248V30.4858C36.6498 30.5248 36.1691 30.6007 35.6694 30.6007C32.3432 30.4848 32.1693 31.6192 31.9194 34.3876ZM38.3219 47.0387H38.245C36.322 46.9427 34.6689 48.4419 34.572 50.3649C34.476 52.3068 35.9752 53.9609 37.8982 54.0558H38.129C40.033 54.1718 41.6661 52.7096 41.782 50.8066V50.6147C41.821 48.6728 40.2639 47.0777 38.3219 47.0387ZM50.3773 47.0387C48.5123 46.9807 46.9542 48.4419 46.8972 50.2879C46.8972 50.4038 46.8972 50.4998 46.9172 50.6147C46.9172 52.7106 48.3394 54.0568 50.4932 54.0568C52.6081 54.0568 53.9353 52.6726 53.9353 50.4998C53.9153 48.4039 52.5111 47.0197 50.3773 47.0387ZM62.7215 47.0387C60.7606 46.9997 59.1255 48.5578 59.0685 50.5188C59.0685 52.4797 60.6446 54.0558 62.6056 54.0558H62.6445C64.4136 54.3637 66.2016 52.6526 66.3175 50.5957C66.4125 48.6918 64.6824 47.0387 62.7215 47.0387ZM79.6602 47.3265C77.4294 47.2306 76.314 46.481 75.7573 44.3652C75.4105 43.0199 75.1996 41.6157 75.1227 40.2314C74.9688 37.6548 74.9878 35.0593 74.8148 32.4827C74.4111 26.369 69.9895 24.2352 63.567 25.2916V30.5987C64.5855 30.5987 65.374 30.5987 66.1626 30.6177C67.5279 30.6367 68.5663 31.1564 68.7002 32.6756C68.8351 34.0598 68.8351 35.463 68.9701 36.8673C69.2399 39.6557 69.3928 42.4812 69.8736 45.2307C70.2973 47.4994 71.8545 49.1915 73.7954 50.5757C70.3933 52.8635 69.3928 56.1317 69.2199 59.8047C69.124 62.3233 69.066 64.8609 68.9321 67.3995C68.8162 69.7062 68.0096 70.4558 65.6829 70.5138C65.0292 70.5328 64.3946 70.5907 63.664 70.6297V76.0707C65.0292 76.0707 66.2785 76.1477 67.5279 76.0707C71.4117 75.8398 73.7574 73.9559 74.527 70.1869C74.8538 68.1101 75.0457 66.0152 75.1037 63.9194C75.2376 61.9965 75.2196 60.0545 75.4115 58.1516C75.6994 55.1712 77.0646 53.9409 80.045 53.749C80.3338 53.71 80.6027 53.653 80.8725 53.5571V47.4614C80.3718 47.4035 80.025 47.3465 79.6602 47.3265Z" fill="#173647"/>
</svg>
